<svg xmlns="http://www.w3.org/2000/svg" xmlns:xlink="http://www.w3.org/1999/xlink" viewBox="0 0 35.01 35"><defs><linearGradient id="a" x1="8.68" y1="18.32" x2="19.88" y2="18.32" gradientUnits="userSpaceOnUse"><stop offset="0.03" stop-color="#9b9b98"/><stop offset="0.13" stop-color="#a4a5a7"/><stop offset="0.22" stop-color="#aeb0b7"/><stop offset="0.38" stop-color="#9fa4ab"/><stop offset="0.69" stop-color="#78848b"/><stop offset="0.72" stop-color="#748087"/><stop offset="1" stop-color="#a6b1b8"/></linearGradient><linearGradient id="b" x1="20.51" y1="13.58" x2="27.27" y2="13.58" xlink:href="#a"/><linearGradient id="c" x1="0.31" y1="17.79" x2="35.32" y2="17.79" xlink:href="#a"/></defs><title>innovia_b6_icon</title><path d="M17.53,17.65a4.17,4.17,0,0,0,1.77-3.37A3.93,3.93,0,0,0,17.75,11,7.11,7.11,0,0,0,13,9.71,20.5,20.5,0,0,0,9.21,10l-.54.12V26.66l.59.08a24.3,24.3,0,0,0,3.22.19c2.77,0,4.63-.52,5.87-1.65a4.89,4.89,0,0,0,1.53-3.62A4.48,4.48,0,0,0,17.53,17.65ZM15.9,14.49c0,1.19-1,1.94-2.69,1.94H12.05V12.67c.31,0,.68,0,1.1,0C15.9,12.62,15.9,14,15.9,14.49ZM13.06,24l-1,0V19.31h1c1.25,0,3.34.3,3.34,2.33S14.57,24,13.06,24Z" transform="translate(-0.31 -0.29)" style="fill:url(#a)"/><path d="M24.25,11.79a3.11,3.11,0,0,0-1.39.32,3.1,3.1,0,0,1,2.34-1.62,3.93,3.93,0,0,1,.64-.06l.57,0V8.7H26a5.69,5.69,0,0,0-.9.07,5.09,5.09,0,0,0-3,1.39,5.86,5.86,0,0,0-1.59,4.21c0,2.45,1.4,4.1,3.48,4.1A3.31,3.31,0,0,0,27.27,15,3,3,0,0,0,24.25,11.79Zm1,3.28c0,1-.51,1.7-1.3,1.7-1.38,0-1.52-1.61-1.52-2.1a.64.64,0,0,1,.09-.34,1.55,1.55,0,0,1,1.34-.85C24.77,13.47,25.29,14.07,25.29,15.07Z" transform="translate(-0.31 -0.29)" style="fill:url(#b)"/><path d="M33.94,11A17.46,17.46,0,0,0,17.81.29,17.58,17.58,0,0,0,1.67,11,17.54,17.54,0,0,0,.31,17.8,17.54,17.54,0,0,0,5.44,30.17a17.46,17.46,0,0,0,12.38,5.12,17.34,17.34,0,0,0,6.81-1.38,17.68,17.68,0,0,0,5.56-3.75A17.52,17.52,0,0,0,33.94,11ZM17.82,32.26A14.47,14.47,0,1,1,32.28,17.78,14.49,14.49,0,0,1,17.82,32.26Z" transform="translate(-0.31 -0.29)" style="fill:url(#c)"/></svg>