<svg xmlns="http://www.w3.org/2000/svg" xmlns:xlink="http://www.w3.org/1999/xlink" viewBox="0 0 40.27 45.33"><defs><linearGradient id="a" x1="0.86" y1="23" x2="41.14" y2="23" gradientUnits="userSpaceOnUse"><stop offset="0.03" stop-color="#9b9b98"/><stop offset="0.13" stop-color="#a4a5a7"/><stop offset="0.22" stop-color="#aeb0b7"/><stop offset="0.38" stop-color="#9fa4ab"/><stop offset="0.69" stop-color="#78848b"/><stop offset="0.72" stop-color="#748087"/><stop offset="1" stop-color="#a6b1b8"/></linearGradient></defs><title>innovia_elderberry_icon</title><path d="M26.43,4.76a1.3,1.3,0,0,1,.95-.37h.12a2.21,2.21,0,0,1,2,2,17.15,17.15,0,0,1-1.32,4.43,25.34,25.34,0,0,1-2.07-4.94A1.31,1.31,0,0,1,26.43,4.76Zm-5.89,5.89a1.3,1.3,0,0,1,1-.37h.12a2.19,2.19,0,0,1,1.95,2,17.44,17.44,0,0,1-1.31,4.43,26,26,0,0,1-2.08-4.94A1.36,1.36,0,0,1,20.54,10.65Zm14.87,1.65a2.2,2.2,0,0,1,2,2,1.37,1.37,0,0,1-.34,1,1.39,1.39,0,0,1-1.1.4A26,26,0,0,1,31,13.62a19.9,19.9,0,0,1,4.39-1.31Zm.67-9.59A1.3,1.3,0,0,1,37,2.35,2.1,2.1,0,0,1,38.47,3a2.13,2.13,0,0,1,.63,1.33,1.35,1.35,0,0,1-.37,1.08,20.3,20.3,0,0,1-4.49,1.83A20,20,0,0,1,36.08,2.72Zm4.1,4.09a3.34,3.34,0,0,0,.95-2.64,4.14,4.14,0,0,0-1.22-2.62A4.1,4.1,0,0,0,37,.33a3.36,3.36,0,0,0-2.38,1c-1.08,1.08-2.49,5.77-2.82,6.91l-1,1a9.71,9.71,0,0,0,.62-3,4.21,4.21,0,0,0-3.84-3.84,3.36,3.36,0,0,0-2.64,1A3.31,3.31,0,0,0,24,6c.1,1.39,2.07,5.32,3,7L25,15.07a9.8,9.8,0,0,0,.62-3,4.18,4.18,0,0,0-3.83-3.83,3.29,3.29,0,0,0-3.59,3.59c.09,1.4,2.07,5.33,3,7L20.07,20c-3.35-5.51-10.38-9.7-16.54-9.7H3.47a1,1,0,0,0-1,1,1,1,0,0,0,1,1h0c5.41,0,11.81,3.82,14.79,8.69l-11,6.66H7.22a6.34,6.34,0,0,0-.68,12.65A6.31,6.31,0,0,0,12,44.61c.19,0,.38,0,.57,0a6.4,6.4,0,0,0,2.91-.71,6.23,6.23,0,0,0,8.63,0,6.33,6.33,0,0,0,2.9.72l.55,0A6.33,6.33,0,0,0,33,40.29a6.34,6.34,0,0,0-.67-12.65h-.15L21.65,21.25l.81-.81c1.39.73,5.91,3.07,7.44,3.18h.26A3.3,3.3,0,0,0,33.49,20a4.19,4.19,0,0,0-3.84-3.83h-.17a14,14,0,0,0-3.69.93l2.56-2.56c1.39.73,5.91,3.07,7.44,3.17H36a3.27,3.27,0,0,0,2.46-1,3.38,3.38,0,0,0,.88-2.56,4.21,4.21,0,0,0-3.84-3.83h-.17a14,14,0,0,0-3.68.92l1.58-1.58C34.44,9.29,39.1,7.89,40.18,6.81ZM29.52,18.2a2.2,2.2,0,0,1,2,2,1.37,1.37,0,0,1-.34,1,1.33,1.33,0,0,1-1.09.4,25.92,25.92,0,0,1-4.95-2.09,20,20,0,0,1,4.39-1.31ZM26.4,31.8a4.31,4.31,0,0,0-.65,0s0,0,0-.06l-3.67-7.87,7.38,4.49A6.4,6.4,0,0,0,26.4,31.8Zm-5.6,1.26,0-7.17,3,6.48a6.12,6.12,0,0,0-1.49,1.11A6.45,6.45,0,0,0,20.8,33.06ZM10.1,28.34l7.48-4.55-3.45,7.86a5.06,5.06,0,0,0-1.08-.16A6.37,6.37,0,0,0,10.1,28.34Zm7.2,5.12A5,5,0,0,0,16,32.41l2.73-6.24,0,6.89A6.69,6.69,0,0,0,17.31,33.46ZM2.89,34a4.34,4.34,0,0,1,4.33-4.33h.33a4.33,4.33,0,0,1-.19,8.65H7.22A4.34,4.34,0,0,1,2.89,34Zm9.28,8.6a4.29,4.29,0,0,1-3.45-2.42A6.32,6.32,0,0,0,13.58,34a4.21,4.21,0,0,0,0-.44,4.88,4.88,0,0,1,2.07,1,6.27,6.27,0,0,0-1.42,7.73A4.39,4.39,0,0,1,12.17,42.6Zm7.63,1A4.34,4.34,0,0,1,16.41,42a4.27,4.27,0,0,1-1-2.72,4.33,4.33,0,1,1,4.34,4.33ZM36.68,34a4.33,4.33,0,0,1-4.33,4.33h-.1A4.26,4.26,0,0,1,30,37.61a1,1,0,1,0-1.13,1.68,6.3,6.3,0,0,0,2.07.88,4.34,4.34,0,0,1-5.52,2.14A6.29,6.29,0,0,0,24,34.62a3.36,3.36,0,0,1,2-.8c0,.06,0,.12,0,.19a6.26,6.26,0,0,0,.87,3.21,1,1,0,0,0,1.38.36,1,1,0,0,0,.36-1.39A4.26,4.26,0,0,1,28,34a4.36,4.36,0,0,1,4-4.32h.35A4.33,4.33,0,0,1,36.68,34Z" transform="translate(-0.86 -0.33)" style="fill:url(#a)"/></svg>