<svg xmlns="http://www.w3.org/2000/svg" xmlns:xlink="http://www.w3.org/1999/xlink" viewBox="0 0 32.1 31.29"><defs><linearGradient id="a" x1="0.55" y1="16.08" x2="32.65" y2="16.08" gradientUnits="userSpaceOnUse"><stop offset="0.03" stop-color="#9b9b98"/><stop offset="0.13" stop-color="#a4a5a7"/><stop offset="0.22" stop-color="#aeb0b7"/><stop offset="0.38" stop-color="#9fa4ab"/><stop offset="0.69" stop-color="#78848b"/><stop offset="0.72" stop-color="#748087"/><stop offset="1" stop-color="#a6b1b8"/></linearGradient></defs><title>innovia_zinc_icon</title><path d="M11.06,20.2h6.09v2.28H7.63V20.93l6-8.82H8.19V9.83h8.87v1.58ZM26,17v5.49H23.51V17.16c0-2-1.06-2-1.42-2a1.64,1.64,0,0,0-1.55,1.19,1.81,1.81,0,0,0-.08.56v5.53H17.92v-6.6c0-.93,0-1.6-.06-2.22l0-.55h2.37l0,.62a3.66,3.66,0,0,1,2.36-.81C24.19,12.92,26,14,26,17Zm6.6,14.74H16.77c-5.53,0-9.67-1.33-12.28-3.94S.55,21.24.55,15.91V.43H16.81c5.42,0,9.46,1.29,12,3.84s3.83,6.36,3.83,11.59ZM3.12,3V15.91c0,4.62,1,7.91,3.19,10.06s5.64,3.19,10.47,3.19H30.08V15.86c0-4.58-1-7.68-3.07-9.78S21.53,3,16.81,3Z" transform="translate(-0.55 -0.43)" style="fill:url(#a)"/></svg>