<svg xmlns="http://www.w3.org/2000/svg" xmlns:xlink="http://www.w3.org/1999/xlink" viewBox="0 0 45.51 45.5"><defs><linearGradient id="a" x1="0.45" y1="23.08" x2="45.96" y2="23.08" gradientUnits="userSpaceOnUse"><stop offset="0.03" stop-color="#9b9b98"/><stop offset="0.13" stop-color="#a4a5a7"/><stop offset="0.22" stop-color="#aeb0b7"/><stop offset="0.38" stop-color="#9fa4ab"/><stop offset="0.69" stop-color="#78848b"/><stop offset="0.72" stop-color="#748087"/><stop offset="1" stop-color="#a6b1b8"/></linearGradient></defs><title>innovia_d3_icon</title><path d="M37.45,17.06A15.4,15.4,0,0,0,23.2,7.64a15.34,15.34,0,0,0-10.93,4.53A15.3,15.3,0,0,0,7.75,23.09,15.44,15.44,0,0,0,23.21,38.54a15.34,15.34,0,0,0,6-1.21A15.57,15.57,0,0,0,34.14,34a15.49,15.49,0,0,0,3.31-17ZM23.21,35.87A12.78,12.78,0,1,1,36,23.07,12.79,12.79,0,0,1,23.21,35.87ZM21.93,4.59V1.12a.79.79,0,0,1,.78-.79h1a.79.79,0,0,1,.79.79V4.59a.79.79,0,0,1-.79.79h-1A.79.79,0,0,1,21.93,4.59Zm2.55,37V45a.78.78,0,0,1-.79.79h-1a.79.79,0,0,1-.79-.79V41.58a.79.79,0,0,1,.79-.79h1A.79.79,0,0,1,24.48,41.58ZM11.11,4.71a.81.81,0,0,1,.3-1.09l.83-.48a.84.84,0,0,1,.6-.08.83.83,0,0,1,.47.38l1.75,3a.8.8,0,0,1-.29,1.08L13.94,8a.86.86,0,0,1-.4.1.78.78,0,0,1-.68-.4ZM35.3,41.46A.8.8,0,0,1,35,42.54l-.83.48a.84.84,0,0,1-.4.1l-.2,0a.76.76,0,0,1-.48-.36l-1.74-3a.78.78,0,0,1,.29-1.08l.83-.48a.8.8,0,0,1,1.09.29ZM3.18,12.73a.82.82,0,0,1,.07-.6l.48-.83A.8.8,0,0,1,4.81,11l3,1.74a.78.78,0,0,1,.29,1.08l-.48.83a.82.82,0,0,1-.48.37l-.19,0a.76.76,0,0,1-.4-.12l-3-1.72A.81.81,0,0,1,3.18,12.73Zm40,20.7a.78.78,0,0,1-.07.6l-.48.82a.79.79,0,0,1-.69.41.74.74,0,0,1-.39-.11l-3-1.73a.79.79,0,0,1-.37-.48.82.82,0,0,1,.08-.6l.48-.83a.78.78,0,0,1,1.08-.28l3,1.72A.79.79,0,0,1,43.23,33.44ZM4.71,24.36H1.24a.79.79,0,0,1-.79-.79v-1a.8.8,0,0,1,.8-.79H4.71a.79.79,0,0,1,.79.79v1A.79.79,0,0,1,4.71,24.36ZM46,22.59v1a.78.78,0,0,1-.78.79H41.7a.79.79,0,0,1-.79-.79v-1a.8.8,0,0,1,.79-.79h3.47A.79.79,0,0,1,46,22.59ZM8.11,32.35a.79.79,0,0,1-.29,1.08l-3,1.74a.86.86,0,0,1-.39.11.8.8,0,0,1-.69-.41l-.48-.82a.78.78,0,0,1-.07-.6A.77.77,0,0,1,3.56,33l3-1.74a.78.78,0,0,1,1.08.29ZM38.3,13.82a.78.78,0,0,1-.08-.6.79.79,0,0,1,.37-.48l3-1.75a.81.81,0,0,1,1.09.3l.48.82a.78.78,0,0,1,.07.61.8.8,0,0,1-.36.48l-3,1.74a.78.78,0,0,1-.4.11.79.79,0,0,1-.69-.4ZM15.06,39.74l-1.74,3a.83.83,0,0,1-.48.37l-.21,0a.84.84,0,0,1-.4-.1l-.82-.48a.8.8,0,0,1-.3-1.09l1.73-3a.79.79,0,0,1,.48-.37.81.81,0,0,1,.6.08l.83.48A.8.8,0,0,1,15.06,39.74ZM31.35,6.43l1.72-3a.78.78,0,0,1,1.09-.3l.83.48a.79.79,0,0,1,.29,1.08l-1.73,3a.78.78,0,0,1-.48.37l-.2,0a.78.78,0,0,1-.4-.11l-.83-.48A.79.79,0,0,1,31.35,6.43Zm-12.3,9.71a24.57,24.57,0,0,0-3.64.28l-.48.06V30.22l.5.06a28,28,0,0,0,3.06.15h0c2.68,0,4.8-.7,6.13-2a7.42,7.42,0,0,0,2-5.44,6.55,6.55,0,0,0-2-5.06C23.41,16.72,21.57,16.14,19.05,16.14Zm.08,2.46V18h0v.57a4.85,4.85,0,0,1,3.57,1.2A4.36,4.36,0,0,1,23.81,23a5,5,0,0,1-1.25,3.66c-1,1-2.61,1.41-4.82,1.24V18.68A12.25,12.25,0,0,1,19.13,18.6ZM18.5,29.87ZM32.82,18.79a2.22,2.22,0,0,1-.68,1.63,2.42,2.42,0,0,1,.8,1.86,2.6,2.6,0,0,1-2.7,2.61,2.48,2.48,0,0,1-2.6-2.44v-.38h1.54l0,.35a1,1,0,0,0,1.08,1,1.07,1.07,0,0,0,.77-.32,1.14,1.14,0,0,0,.33-.82,1,1,0,0,0-1.15-1h-.36l-.08-.36V19.7h.35c.94,0,1.14-.37,1.14-.85a.89.89,0,0,0-1-1,.84.84,0,0,0-.86.88l0,.33H27.83l0-.41a2.48,2.48,0,0,1,4.95.11Z" transform="translate(-0.45 -0.33)" style="fill:url(#a)"/></svg>