<svg xmlns="http://www.w3.org/2000/svg" xmlns:xlink="http://www.w3.org/1999/xlink" viewBox="0 0 46.44 45"><defs><linearGradient id="a" x1="0.5" y1="22.83" x2="46.94" y2="22.83" gradientUnits="userSpaceOnUse"><stop offset="0.03" stop-color="#9b9b98"/><stop offset="0.13" stop-color="#a4a5a7"/><stop offset="0.22" stop-color="#aeb0b7"/><stop offset="0.38" stop-color="#9fa4ab"/><stop offset="0.69" stop-color="#78848b"/><stop offset="0.72" stop-color="#748087"/><stop offset="1" stop-color="#a6b1b8"/></linearGradient></defs><title>innovia_aloe_icon</title><path d="M46.83,12.82a.93.93,0,0,0-1.09-.43,20.2,20.2,0,0,0-8.13,5.94,46.83,46.83,0,0,0-3.24,4.43c.09-.88.16-1.77.23-2.63V20c.41-5,.8-9.76,3.6-11.62a.9.9,0,0,0-.41-1.65,5.63,5.63,0,0,0-.63,0c-4.79,0-7.36,5.44-9.35,10.79A136.9,136.9,0,0,0,24.58,1a.93.93,0,0,0-.88-.67.91.91,0,0,0-.87.65,105.3,105.3,0,0,0-3.3,16.31c-2.4-6.39-5-10.59-9.27-10.59a5.52,5.52,0,0,0-.63,0,.9.9,0,0,0-.42,1.65C12,10.25,12.42,15,12.83,20l0,.34c.06.78.13,1.58.21,2.39-.89-1.23-1.68-2.29-2.5-3.33a16.55,16.55,0,0,0-9-5.64.92.92,0,0,0-1,.52.9.9,0,0,0,.28,1.08s3,2.35,5.18,8l.55,1.44a73.63,73.63,0,0,0,5.68,12.44c2.42,3.91,6.79,8.09,11.79,8.09a10.4,10.4,0,0,0,9.2-4.94l.21-.29a31.58,31.58,0,0,0,2.6-4.31A80.12,80.12,0,0,0,40.6,24.85c.32-.89.66-1.85,1-2.9,2-5.59,4.82-7.89,4.94-8A.9.9,0,0,0,46.83,12.82ZM26.2,22.12c-.78,2.28-1.59,4.64-2.48,6.79-.88-2.14-1.7-4.5-2.48-6.79l-.2-.59A88,88,0,0,1,23.67,4.9a105.34,105.34,0,0,1,2.7,16.72ZM35.15,9c-1.67,2.69-2,6.64-2.35,10.82-.18,2.14-.36,4.34-.73,6.43a40,40,0,0,1-4.9,6.43c-.33.34-.6.59-.85.82l-.17.16-.23-.37a24.35,24.35,0,0,1-1.2-2.2c.61-1.34,1.25-2.92,2-5,.27-.74.53-1.5.78-2.25l.43-1.24c.09-.27.18-.53.27-.79C30.33,15.63,32.24,10.65,35.15,9ZM23.56,32.83a22.63,22.63,0,0,0,1.17,2c-.26.18-.53.37-.83.55-.4-.29-.79-.6-1.16-.9L22.21,34l-.53-.49L21,32.9c-.29-.29-.58-.6-.86-.9a62.74,62.74,0,0,1-4.89-6.16c-.32-2-.5-4.1-.65-6C14.29,15.7,14,11.75,12.29,9c2.91,1.6,4.8,6.55,6.95,12.79l.3.87L20,24.06c.26.74.51,1.47.78,2.2.72,2,1.35,3.59,2,5l.4.83C23.29,32.31,23.42,32.58,23.56,32.83Zm-3.25,1.86.29.27.54.48.72.61.36.28,0,0,.15.12.2.15L23,37c.23.16.45.32.68.47l.69.44.08,0,.49.28.12.07.28.15.27.14.06,0,.57.28.6.27a20.24,20.24,0,0,0,4,1.27,9.56,9.56,0,0,1-6.88,3.09,7.93,7.93,0,0,1-3-.6,11.7,11.7,0,0,1-2.31-1.26,18.67,18.67,0,0,1-5-5.36c-2.22-3.58-3.69-7.39-5.55-12.2l-.53-1.38a26.41,26.41,0,0,0-3.14-5.9,14.24,14.24,0,0,1,4.56,3.71c1.3,1.64,2.57,3.41,3.68,5l.77,1.07,1,1.39,1.15,1.55A44.15,44.15,0,0,0,20.31,34.69Zm6.94,2.66,0,0L26.57,37l-.08,0-.07,0c-.21-.1-.42-.22-.62-.34l-.26-.15.42-.3.06,0,0,0,.46-.35c.16-.12.31-.24.48-.39l.09-.07a27.36,27.36,0,0,0,4.23-4.67c.43-.59.88-1.21,1.34-1.91s.75-1.12,1.11-1.68l.77-1.19A60.92,60.92,0,0,1,39,19.51a19.68,19.68,0,0,1,3.32-3.13,27.27,27.27,0,0,0-2.36,5c-.38,1.06-.73,2-1,2.92A79.22,79.22,0,0,1,34.46,35a30.09,30.09,0,0,1-2.3,3.86,20.08,20.08,0,0,1-2.64-.6c-.35-.1-.72-.23-1.14-.39L28,37.68Z" transform="translate(-0.5 -0.33)" style="fill:url(#a)"/></svg>